PathFileType	4	(X/Y/Z)	./resultDataOpenSim/trcMotMarkerGrf/sub09/qtm-04-02.trc
DataRate	CameraRate	NumFrames	NumMarkers	Units	OrigDataRate	OrigDataStartFrame	OrigNumFrames
250.000000	250.000000	6	24	m	250.000000	432	493
Frame#	Time	L.Toe.Tip			R.Toe.Tip			L.Ankle.Lat			R.Ankle.Lat			L.Ankle.Med			R.Ankle.Med			L.Heel			R.Heel			L.Knee.Lat			R.Knee.Lat			L.Knee.Med			R.Knee.Med			L.Thigh.Upper			R.Thigh.Upper			L.ASIS			R.ASIS			V.Sacral			L.Acromium			R.Acromium			C7			L.Elbow			R.Elbow			L.Wrist.Lat			R.Wrist.Lat
		X1	Y1	Z1	X2	Y2	Z2	X3	Y3	Z3	X4	Y4	Z4	X5	Y5	Z5	X6	Y6	Z6	X7	Y7	Z7	X8	Y8	Z8	X9	Y9	Z9	X10	Y10	Z10	X11	Y11	Z11	X12	Y12	Z12	X13	Y13	Z13	X14	Y14	Z14	X15	Y15	Z15	X16	Y16	Z16	X17	Y17	Z17	X18	Y18	Z18	X19	Y19	Z19	X20	Y20	Z20	X21	Y21	Z21	X22	Y22	Z22	X23	Y23	Z23	X24	Y24	Z24

432	1.724	1.8174458	0.11495268	-0.0061720481	1.0808927	0.041853285	0.10644783	1.6704342	0.081248732	-0.037576565	0.95784091	0.11121297	0.14902381	1.6888652	0.10774758	0.055340449	0.98314046	0.14517592	0.059282709	1.6224113	0.019292748	0.012440982	0.88486862	0.12187164	0.095996226	1.5432911	0.48197465	-0.074632888	1.2190641	0.489776	0.21495335	1.5415994	0.4739562	0.052524108	1.2120789	0.48161701	0.087425823	1.367158	0.85862926	-0.11467965	1.3063771	0.88349452	0.25161123	1.4364226	0.94942011	-0.048764122	1.4249293	0.95936989	0.19339867	1.2623184	1.0068538	0.052161377	1.3892781	1.407456	-0.11057564	1.3837003	1.4246429	0.2221721	1.3153478	1.4613515	0.05563573	1.2425649	1.0698009	-0.141282	1.2774091	1.0605059	0.30669611	1.3278927	0.83114224	-0.20795038	1.5203669	0.91651216	0.28730542
433	1.728	1.8216389	0.10861781	-0.0052552068	1.0812059	0.042028103	0.10679748	1.6735078	0.079489347	-0.036950417	0.96279831	0.11318585	0.15058706	1.6922723	0.10567233	0.056060913	0.9851463	0.14669264	0.060331428	1.6235536	0.019484762	0.012755451	0.88669132	0.12479907	0.097043768	1.551104	0.48141013	-0.074696137	1.2257569	0.48849247	0.2155811	1.5500675	0.47418754	0.052214526	1.2181853	0.48017717	0.087921348	1.373245	0.85822226	-0.11542982	1.3131768	0.88203946	0.25130431	1.4430563	0.94880467	-0.049359792	1.4314128	0.95802955	0.19289548	1.2686869	1.0055503	0.051830535	1.3948821	1.4063636	-0.111024	1.3893906	1.423464	0.22174721	1.3208421	1.4601264	0.055237418	1.2481152	1.0687422	-0.1416935	1.2829731	1.0594964	0.30615437	1.3332704	0.83005934	-0.20846419	1.5251716	0.91465093	0.28757484
434	1.732	1.8262588	0.10147946	-0.0043949794	1.0815419	0.042161207	0.10726663	1.6766287	0.078211525	-0.036381591	0.96610993	0.11481757	0.15141731	1.6960041	0.10402597	0.056686515	0.98732446	0.14825513	0.06139351	1.6246529	0.020425763	0.01326314	0.88871097	0.12785221	0.097994769	1.5586972	0.48085056	-0.074952349	1.2328436	0.48721899	0.21630695	1.5584278	0.47430556	0.051770683	1.2245089	0.47856703	0.088451586	1.3794555	0.85788299	-0.11615768	1.3206732	0.88048227	0.25126774	1.4496591	0.9483425	-0.049877204	1.4379427	0.95669187	0.1924012	1.2750534	1.00432	0.051557809	1.4004938	1.4052939	-0.11149113	1.3951045	1.4223001	0.22131558	1.3263331	1.4589576	0.054833939	1.2537031	1.0676833	-0.14210947	1.2888811	1.0585832	0.30543887	1.3387236	0.82898327	-0.20896964	1.5299492	0.91277094	0.28785537
435	1.736	1.8310002	0.094305735	-0.0036144018	1.0819166	0.042256323	0.10786782	1.6797508	0.077360203	-0.036009488	0.96680288	0.11612333	0.15143827	1.6999224	0.1026846	0.057107047	0.98966139	0.14988968	0.062494204	1.6258158	0.021837018	0.013691815	0.89090941	0.13102069	0.098928683	1.5661319	0.48038716	-0.075402337	1.2399497	0.48592385	0.21701202	1.5666634	0.47433926	0.051267202	1.2310936	0.47682447	0.089028067	1.3858664	0.85759219	-0.1168626	1.3286583	0.8788589	0.25143499	1.4561935	0.94803546	-0.050324527	1.4445211	0.95536553	0.19191549	1.281387	1.0031991	0.051315201	1.4061088	1.4042574	-0.11198345	1.4008105	1.4211762	0.22089243	1.3318503	1.4578796	0.054407766	1.2593463	1.0666269	-0.14251849	1.2950743	1.057773	0.30462016	1.3442545	0.82791106	-0.20947103	1.5347806	0.91088592	0.28812006
436	1.74	1.8353758	0.087916464	-0.0029533098	1.0823565	0.042353886	0.10851688	1.682795	0.076748459	-0.035895568	0.96621617	0.11758405	0.15134455	1.7036793	0.1014867	0.057303505	0.99215426	0.15160884	0.063656116	1.6270659	0.023335339	0.013779227	0.89325702	0.1343126	0.099958299	1.5734926	0.48014797	-0.076002741	1.2468537	0.48458539	0.21761826	1.5747714	0.47440613	0.050764202	1.2379589	0.47505611	0.08966042	1.3925259	0.85734054	-0.11754118	1.3365222	0.87723709	0.25153933	1.4626357	0.94785893	-0.050729215	1.4511375	0.95406349	0.19143985	1.2876619	1.0022027	0.051071135	1.4117234	1.4032624	-0.11250383	1.4065006	1.4201046	0.22048728	1.3374263	1.4569231	0.053950085	1.2650537	1.0655753	-0.14292478	1.3011949	1.0569834	0.30385441	1.3498689	0.82684533	-0.20996812	1.539637	0.90898654	0.28837422
437	1.744	1.8390405	0.082677094	-0.0024090682	1.0828742	0.042494126	0.10905637	1.685701	0.076210043	-0.036008281	0.96608115	0.11963487	0.15187865	1.7069499	0.10036042	0.057332849	0.99482247	0.15339417	0.064884419	1.6283592	0.024650032	0.013453354	0.89577362	0.13774617	0.10112008	1.5808894	0.48028085	-0.07668105	1.2536104	0.48320116	0.21812373	1.5827794	0.47468972	0.050274514	1.2450914	0.47335011	0.090340653	1.3994322	0.85713509	-0.11817394	1.3438508	0.87565499	0.25137545	1.4689815	0.94777599	-0.051111112	1.4577646	0.9528046	0.19098093	1.2938662	1.0013244	0.050810518	1.417336	1.4023176	-0.11305078	1.4121769	1.419091	0.22010405	1.3430816	1.4561034	0.053472348	1.2708114	1.0645287	-0.14336525	1.3069358	1.0561321	0.30323602	1.3555659	0.82579657	-0.21045358	1.5444579	0.90706431	0.28863569
